<?xml version="1.0" standalone="no"?>
<!DOCTYPE svg PUBLIC "-//W3C//DTD SVG 20010904//EN"
 "http://www.w3.org/TR/2001/REC-SVG-20010904/DTD/svg10.dtd">
<svg version="1.0" xmlns="http://www.w3.org/2000/svg"
 width="740.000000pt" height="740.000000pt" viewBox="0 0 740.000000 740.000000"
 preserveAspectRatio="xMidYMid meet">

<g transform="translate(0.000000,740.000000) scale(0.100000,-0.100000)"
fill="#000000" stroke="none">
<path d="M3435 7374 c-16 -2 -79 -9 -140 -15 -623 -62 -1269 -316 -1788 -702
-754 -561 -1276 -1403 -1432 -2312 -44 -254 -50 -337 -50 -660 0 -339 10 -451
65 -725 202 -1007 820 -1887 1705 -2425 136 -83 406 -217 545 -272 607 -238
1259 -314 1895 -222 796 115 1510 473 2081 1043 797 798 1179 1886 1058 3016
-73 688 -347 1351 -782 1896 -541 677 -1308 1145 -2152 1314 -256 51 -372 62
-685 65 -159 2 -303 1 -320 -1z m2227 -2934 c225 -399 412 -730 415 -736 4
-11 -363 -244 -383 -244 -9 0 -827 1448 -832 1472 -3 15 356 239 376 235 7 -1
198 -328 424 -727z m-3351 642 c68 -43 148 -92 176 -108 29 -16 53 -32 53 -36
0 -7 -782 -1401 -819 -1459 l-16 -27 -125 80 c-69 44 -149 93 -178 110 -84 48
-85 59 -17 180 32 57 117 209 190 338 73 129 172 305 220 390 383 682 340 610
368 610 13 0 79 -35 148 -78z m1914 -367 c50 -8 146 -30 215 -47 118 -30 136
-32 312 -33 119 0 191 -4 198 -11 6 -6 125 -214 265 -464 178 -315 255 -462
255 -483 0 -25 -16 -45 -92 -119 -51 -48 -125 -110 -163 -137 l-71 -49 -169
130 c-325 250 -611 447 -860 593 -182 106 -428 235 -450 235 -9 0 -62 -14
-116 -31 -86 -26 -103 -36 -127 -67 -56 -74 -149 -166 -216 -213 -84 -59 -151
-85 -244 -95 -94 -9 -122 7 -122 69 0 72 25 113 318 531 88 125 103 134 282
170 222 45 594 55 785 21z m-1641 -64 c119 -75 160 -90 313 -118 81 -14 150
-27 152 -29 2 -2 -45 -76 -105 -166 -131 -197 -163 -258 -170 -323 -13 -111
39 -160 166 -158 179 3 332 94 520 310 40 45 54 54 119 73 40 12 83 19 95 16
53 -14 501 -271 686 -394 206 -138 547 -388 691 -508 91 -76 125 -132 116
-195 -7 -54 -47 -112 -90 -132 -53 -25 -143 -22 -192 7 -22 12 -191 114 -375
225 -202 122 -343 201 -355 199 -12 -2 -21 -12 -23 -24 -3 -24 21 -41 453
-299 127 -76 238 -146 248 -157 39 -45 10 -163 -52 -207 -39 -28 -130 -45
-176 -32 -19 5 -71 32 -117 59 -240 145 -525 302 -543 300 -13 -2 -20 -11 -20
-26 0 -20 43 -49 304 -201 178 -103 308 -186 314 -197 12 -29 -18 -126 -50
-158 -43 -43 -127 -57 -206 -35 -21 6 -149 64 -285 130 -136 66 -256 118 -267
117 -12 -2 -21 -12 -23 -26 -3 -20 21 -34 257 -149 144 -70 261 -130 261 -134
0 -23 -105 -119 -152 -139 -48 -21 -63 -22 -158 -16 -58 3 -130 12 -160 20
-86 21 -230 66 -230 72 0 3 18 32 40 66 46 71 57 127 40 197 -21 87 -98 165
-182 185 -45 10 -58 32 -58 94 0 113 -77 216 -184 247 -66 19 -72 26 -81 90
-15 101 -65 172 -150 211 -107 51 -198 22 -280 -88 -27 -37 -53 -67 -57 -67
-4 -1 -16 16 -27 38 -43 83 -147 151 -233 151 -40 0 -125 -40 -158 -75 l-23
-24 -38 42 c-124 142 -209 251 -209 271 0 12 18 53 41 91 23 39 106 186 185
328 317 566 324 577 352 577 8 0 42 -17 76 -39z m-137 -1261 c55 -33 93 -95
93 -152 0 -27 -5 -59 -11 -71 -28 -53 -141 -195 -164 -205 -64 -29 -152 -1
-202 64 -21 28 -28 50 -31 98 l-4 62 75 101 c42 56 84 106 94 112 31 18 115
13 150 -9z m491 -9 c46 -23 67 -46 87 -94 18 -43 19 -90 3 -120 -18 -33 -370
-500 -387 -514 -20 -16 -105 -17 -134 -2 -32 17 -77 60 -93 91 -20 38 -18 117
4 153 52 84 346 472 370 487 36 23 104 23 150 -1z m262 -311 c68 -35 119 -127
105 -190 -11 -50 -300 -440 -340 -458 -93 -43 -220 35 -232 142 -3 25 -3 56 1
70 3 14 47 80 98 148 50 68 116 157 145 198 79 110 138 133 223 90z m213 -331
c60 -16 114 -72 133 -134 13 -48 13 -57 -1 -91 -17 -41 -158 -235 -199 -273
-39 -36 -119 -41 -165 -9 -87 59 -122 148 -86 219 19 38 134 198 174 243 24
26 73 55 96 56 6 0 27 -5 48 -11z"/>
</g>
</svg>
